# xmcd CD database file
# Copyright (C) 1996 Ti Kan
#
# Track frame offsets:
#	150
#	11470
#	23125
#	40918
#	60078
#	76090
#	93693
#	106305
#	132245
#	145630
#	156420
#	181600
#	195808
#	211260
#	225908
#	252858
#	272265
#	285745
#	303643
#	324648
# Disc length: 4454 seconds
#
# Revision: 1
# Processed by: cddbd v1.4PL0 Copyright (c) Steve Scherf et al.
# Submitted via: CDCOPY 4.900
#
DISCID=f6116414
DTITLE=Louis Armstrong - Louis Armstrong en Concierto con los Mejores Artistas
DYEAR=1900
DGENRE=
TTITLE0=Hello Dolly
TTITLE1=What a Difference a Day Makes (Dinah Washington)
TTITLE2=Cabaret
TTITLE3=I Can't Stop Loving You (Ray Charles)
TTITLE4=My Foolish Heart (Bobby Hackett)
TTITLE5=Ruby (Ray Charles)
TTITLE6=Unforgettable (Dinah Washington)
TTITLE7=A Kiss To Build A Dream On
TTITLE8=Make The World Go Away (Al Hirt and Ace Cannon)
TTITLE9=What A Wonderful World
TTITLE10=Baby It's Cold Outside (Louis Armstrong and Velma Middleton)
TTITLE11=You'll Never Know (Ela Fitzgerald)
TTITLE12=Blueberry Hill
TTITLE13=Bucket's Got A Hole In It
TTITLE14=I'm Confessing (That I Love You) (Louis Armstrong and Velma Middleton)
TTITLE15=Mack The Knife (Ella Fitzgerald)
TTITLE16=Crying Time (Ray Charles)
TTITLE17=C'est Si Bon
TTITLE18=La Vie En Rose
TTITLE19=Busted
EXTD=
EXTT0=
EXTT1=
EXTT2=
EXTT3=
EXTT4=
EXTT5=
EXTT6=
EXTT7=
EXTT8=
EXTT9=
EXTT10=
EXTT11=
EXTT12=
EXTT13=
EXTT14=
EXTT15=
EXTT16=
EXTT17=
EXTT18=
EXTT19=
PLAYORDER=
